<mxfile host="app.diagrams.net" agent="Mozilla/5.0 (Windows NT 10.0; Win64; x64) AppleWebKit/537.36 (KHTML, like Gecko) Chrome/133.0.0.0 Safari/537.36" version="26.1.0">
  <diagram name="1 oldal" id="vW0d9iGY4lVtmurSA1oP">
    <mxGraphModel grid="1" page="1" gridSize="10" guides="1" tooltips="1" connect="1" arrows="1" fold="1" pageScale="1" pageWidth="827" pageHeight="1169" math="0" shadow="0">
      <root>
        <mxCell id="0" />
        <mxCell id="1" parent="0" />
        <mxCell id="SLiJRkCuJoeJIqZVfS3b-3" value="" style="edgeStyle=orthogonalEdgeStyle;rounded=0;orthogonalLoop=1;jettySize=auto;html=1;endArrow=none;startFill=0;" edge="1" parent="1" source="SLiJRkCuJoeJIqZVfS3b-1" target="SLiJRkCuJoeJIqZVfS3b-2">
          <mxGeometry relative="1" as="geometry" />
        </mxCell>
        <mxCell id="SLiJRkCuJoeJIqZVfS3b-1" value="rwwf5w_orarend" style="ellipse;whiteSpace=wrap;html=1;" vertex="1" parent="1">
          <mxGeometry x="354" y="40" width="120" height="80" as="geometry" />
        </mxCell>
        <mxCell id="SLiJRkCuJoeJIqZVfS3b-6" value="" style="edgeStyle=orthogonalEdgeStyle;rounded=0;orthogonalLoop=1;jettySize=auto;html=1;endArrow=none;startFill=0;" edge="1" parent="1" source="SLiJRkCuJoeJIqZVfS3b-2" target="SLiJRkCuJoeJIqZVfS3b-5">
          <mxGeometry relative="1" as="geometry" />
        </mxCell>
        <mxCell id="SLiJRkCuJoeJIqZVfS3b-8" value="" style="edgeStyle=orthogonalEdgeStyle;rounded=0;orthogonalLoop=1;jettySize=auto;html=1;endArrow=none;startFill=0;" edge="1" parent="1" source="SLiJRkCuJoeJIqZVfS3b-2" target="SLiJRkCuJoeJIqZVfS3b-7">
          <mxGeometry relative="1" as="geometry" />
        </mxCell>
        <mxCell id="SLiJRkCuJoeJIqZVfS3b-2" value="" style="ellipse;whiteSpace=wrap;html=1;" vertex="1" parent="1">
          <mxGeometry x="337" y="180" width="154" height="100" as="geometry" />
        </mxCell>
        <mxCell id="SLiJRkCuJoeJIqZVfS3b-4" value="óra" style="ellipse;whiteSpace=wrap;html=1;" vertex="1" parent="1">
          <mxGeometry x="354" y="190" width="120" height="80" as="geometry" />
        </mxCell>
        <mxCell id="SLiJRkCuJoeJIqZVfS3b-5" value="Tipus" style="rhombus;whiteSpace=wrap;html=1;" vertex="1" parent="1">
          <mxGeometry x="608" y="190" width="80" height="80" as="geometry" />
        </mxCell>
        <mxCell id="SLiJRkCuJoeJIqZVfS3b-7" value="&lt;u&gt;ID&lt;/u&gt;" style="rhombus;whiteSpace=wrap;html=1;" vertex="1" parent="1">
          <mxGeometry x="140" y="190" width="80" height="80" as="geometry" />
        </mxCell>
        <mxCell id="SLiJRkCuJoeJIqZVfS3b-11" value="" style="endArrow=none;html=1;rounded=0;exitX=0.5;exitY=1;exitDx=0;exitDy=0;entryX=1;entryY=0;entryDx=0;entryDy=0;startFill=0;" edge="1" parent="1" source="SLiJRkCuJoeJIqZVfS3b-2" target="SLiJRkCuJoeJIqZVfS3b-12">
          <mxGeometry width="50" height="50" relative="1" as="geometry">
            <mxPoint x="340" y="270" as="sourcePoint" />
            <mxPoint x="260" y="340" as="targetPoint" />
          </mxGeometry>
        </mxCell>
        <mxCell id="SLiJRkCuJoeJIqZVfS3b-12" value="Tárgy" style="ellipse;whiteSpace=wrap;html=1;" vertex="1" parent="1">
          <mxGeometry y="360" width="120" height="80" as="geometry" />
        </mxCell>
        <mxCell id="SLiJRkCuJoeJIqZVfS3b-13" value="Helyszín" style="ellipse;whiteSpace=wrap;html=1;" vertex="1" parent="1">
          <mxGeometry x="320" y="360" width="120" height="80" as="geometry" />
        </mxCell>
        <mxCell id="SLiJRkCuJoeJIqZVfS3b-14" value="Oktató" style="ellipse;whiteSpace=wrap;html=1;" vertex="1" parent="1">
          <mxGeometry x="480" y="360" width="120" height="80" as="geometry" />
        </mxCell>
        <mxCell id="SLiJRkCuJoeJIqZVfS3b-15" value="Szak" style="ellipse;whiteSpace=wrap;html=1;" vertex="1" parent="1">
          <mxGeometry x="640" y="360" width="120" height="80" as="geometry" />
        </mxCell>
        <mxCell id="SLiJRkCuJoeJIqZVfS3b-16" value="Időpont" style="ellipse;whiteSpace=wrap;html=1;" vertex="1" parent="1">
          <mxGeometry x="160" y="360" width="120" height="80" as="geometry" />
        </mxCell>
        <mxCell id="SLiJRkCuJoeJIqZVfS3b-17" value="Nap" style="ellipse;whiteSpace=wrap;html=1;" vertex="1" parent="1">
          <mxGeometry x="40" y="600" width="120" height="80" as="geometry" />
        </mxCell>
        <mxCell id="SLiJRkCuJoeJIqZVfS3b-18" value="Tól" style="ellipse;whiteSpace=wrap;html=1;" vertex="1" parent="1">
          <mxGeometry x="200" y="600" width="120" height="80" as="geometry" />
        </mxCell>
        <mxCell id="SLiJRkCuJoeJIqZVfS3b-19" value="Ig" style="ellipse;whiteSpace=wrap;html=1;" vertex="1" parent="1">
          <mxGeometry x="360" y="600" width="120" height="80" as="geometry" />
        </mxCell>
        <mxCell id="SLiJRkCuJoeJIqZVfS3b-20" value="" style="endArrow=none;html=1;rounded=0;exitX=0.5;exitY=1;exitDx=0;exitDy=0;entryX=1;entryY=0;entryDx=0;entryDy=0;startFill=0;" edge="1" parent="1" source="SLiJRkCuJoeJIqZVfS3b-2" target="SLiJRkCuJoeJIqZVfS3b-16">
          <mxGeometry width="50" height="50" relative="1" as="geometry">
            <mxPoint x="361" y="272" as="sourcePoint" />
            <mxPoint x="112" y="382" as="targetPoint" />
          </mxGeometry>
        </mxCell>
        <mxCell id="SLiJRkCuJoeJIqZVfS3b-21" value="" style="endArrow=none;html=1;rounded=0;exitX=0.5;exitY=1;exitDx=0;exitDy=0;startFill=0;" edge="1" parent="1" source="SLiJRkCuJoeJIqZVfS3b-2" target="SLiJRkCuJoeJIqZVfS3b-13">
          <mxGeometry width="50" height="50" relative="1" as="geometry">
            <mxPoint x="371" y="282" as="sourcePoint" />
            <mxPoint x="122" y="392" as="targetPoint" />
          </mxGeometry>
        </mxCell>
        <mxCell id="SLiJRkCuJoeJIqZVfS3b-22" value="" style="endArrow=none;html=1;rounded=0;exitX=0.5;exitY=1;exitDx=0;exitDy=0;entryX=0.5;entryY=0;entryDx=0;entryDy=0;startFill=0;" edge="1" parent="1" source="SLiJRkCuJoeJIqZVfS3b-2" target="SLiJRkCuJoeJIqZVfS3b-14">
          <mxGeometry width="50" height="50" relative="1" as="geometry">
            <mxPoint x="381" y="292" as="sourcePoint" />
            <mxPoint x="132" y="402" as="targetPoint" />
          </mxGeometry>
        </mxCell>
        <mxCell id="SLiJRkCuJoeJIqZVfS3b-23" value="" style="endArrow=none;html=1;rounded=0;exitX=0.5;exitY=1;exitDx=0;exitDy=0;entryX=0;entryY=0;entryDx=0;entryDy=0;startFill=0;" edge="1" parent="1" source="SLiJRkCuJoeJIqZVfS3b-2" target="SLiJRkCuJoeJIqZVfS3b-15">
          <mxGeometry width="50" height="50" relative="1" as="geometry">
            <mxPoint x="391" y="302" as="sourcePoint" />
            <mxPoint x="142" y="412" as="targetPoint" />
          </mxGeometry>
        </mxCell>
        <mxCell id="SLiJRkCuJoeJIqZVfS3b-24" value="" style="endArrow=none;html=1;rounded=0;exitX=0.5;exitY=1;exitDx=0;exitDy=0;entryX=0.5;entryY=0;entryDx=0;entryDy=0;startFill=0;" edge="1" parent="1" source="SLiJRkCuJoeJIqZVfS3b-16" target="SLiJRkCuJoeJIqZVfS3b-17">
          <mxGeometry width="50" height="50" relative="1" as="geometry">
            <mxPoint x="401" y="312" as="sourcePoint" />
            <mxPoint x="152" y="422" as="targetPoint" />
          </mxGeometry>
        </mxCell>
        <mxCell id="SLiJRkCuJoeJIqZVfS3b-25" value="" style="endArrow=none;html=1;rounded=0;exitX=0.5;exitY=1;exitDx=0;exitDy=0;entryX=0.5;entryY=0;entryDx=0;entryDy=0;startFill=0;" edge="1" parent="1" source="SLiJRkCuJoeJIqZVfS3b-16" target="SLiJRkCuJoeJIqZVfS3b-18">
          <mxGeometry width="50" height="50" relative="1" as="geometry">
            <mxPoint x="411" y="322" as="sourcePoint" />
            <mxPoint x="162" y="432" as="targetPoint" />
          </mxGeometry>
        </mxCell>
        <mxCell id="SLiJRkCuJoeJIqZVfS3b-26" value="" style="endArrow=none;html=1;rounded=0;entryX=0.5;entryY=0;entryDx=0;entryDy=0;startFill=0;" edge="1" parent="1" target="SLiJRkCuJoeJIqZVfS3b-19">
          <mxGeometry width="50" height="50" relative="1" as="geometry">
            <mxPoint x="220" y="440" as="sourcePoint" />
            <mxPoint x="172" y="442" as="targetPoint" />
          </mxGeometry>
        </mxCell>
        <mxCell id="SLiJRkCuJoeJIqZVfS3b-27" value="" style="rounded=0;whiteSpace=wrap;html=1;" vertex="1" parent="1">
          <mxGeometry x="50" y="480" width="20" height="40" as="geometry" />
        </mxCell>
        <mxCell id="SLiJRkCuJoeJIqZVfS3b-28" value="" style="rounded=0;whiteSpace=wrap;html=1;" vertex="1" parent="1">
          <mxGeometry x="370" y="480" width="20" height="40" as="geometry" />
        </mxCell>
        <mxCell id="SLiJRkCuJoeJIqZVfS3b-29" value="" style="rounded=0;whiteSpace=wrap;html=1;" vertex="1" parent="1">
          <mxGeometry x="530" y="480" width="20" height="40" as="geometry" />
        </mxCell>
        <mxCell id="SLiJRkCuJoeJIqZVfS3b-30" value="" style="rounded=0;whiteSpace=wrap;html=1;" vertex="1" parent="1">
          <mxGeometry x="690" y="480" width="20" height="40" as="geometry" />
        </mxCell>
        <mxCell id="SLiJRkCuJoeJIqZVfS3b-31" value="" style="rounded=0;whiteSpace=wrap;html=1;" vertex="1" parent="1">
          <mxGeometry x="90" y="720" width="20" height="40" as="geometry" />
        </mxCell>
        <mxCell id="SLiJRkCuJoeJIqZVfS3b-32" value="" style="rounded=0;whiteSpace=wrap;html=1;" vertex="1" parent="1">
          <mxGeometry x="250" y="720" width="20" height="40" as="geometry" />
        </mxCell>
        <mxCell id="SLiJRkCuJoeJIqZVfS3b-33" value="" style="rounded=0;whiteSpace=wrap;html=1;" vertex="1" parent="1">
          <mxGeometry x="410" y="720" width="20" height="40" as="geometry" />
        </mxCell>
        <mxCell id="SLiJRkCuJoeJIqZVfS3b-34" value="" style="endArrow=none;html=1;rounded=0;entryX=0.5;entryY=0;entryDx=0;entryDy=0;exitX=0.5;exitY=1;exitDx=0;exitDy=0;startFill=0;" edge="1" parent="1" source="SLiJRkCuJoeJIqZVfS3b-12" target="SLiJRkCuJoeJIqZVfS3b-27">
          <mxGeometry width="50" height="50" relative="1" as="geometry">
            <mxPoint x="230" y="450" as="sourcePoint" />
            <mxPoint x="430" y="610" as="targetPoint" />
          </mxGeometry>
        </mxCell>
        <mxCell id="SLiJRkCuJoeJIqZVfS3b-35" value="" style="endArrow=none;html=1;rounded=0;entryX=0.5;entryY=0;entryDx=0;entryDy=0;exitX=0.5;exitY=1;exitDx=0;exitDy=0;startFill=0;" edge="1" parent="1" source="SLiJRkCuJoeJIqZVfS3b-13" target="SLiJRkCuJoeJIqZVfS3b-28">
          <mxGeometry width="50" height="50" relative="1" as="geometry">
            <mxPoint x="240" y="460" as="sourcePoint" />
            <mxPoint x="440" y="620" as="targetPoint" />
          </mxGeometry>
        </mxCell>
        <mxCell id="SLiJRkCuJoeJIqZVfS3b-36" value="" style="endArrow=none;html=1;rounded=0;exitX=0.5;exitY=1;exitDx=0;exitDy=0;startFill=0;" edge="1" parent="1" source="SLiJRkCuJoeJIqZVfS3b-14" target="SLiJRkCuJoeJIqZVfS3b-29">
          <mxGeometry width="50" height="50" relative="1" as="geometry">
            <mxPoint x="250" y="470" as="sourcePoint" />
            <mxPoint x="450" y="630" as="targetPoint" />
          </mxGeometry>
        </mxCell>
        <mxCell id="SLiJRkCuJoeJIqZVfS3b-37" value="" style="endArrow=none;html=1;rounded=0;exitX=0.5;exitY=1;exitDx=0;exitDy=0;startFill=0;" edge="1" parent="1" source="SLiJRkCuJoeJIqZVfS3b-15">
          <mxGeometry width="50" height="50" relative="1" as="geometry">
            <mxPoint x="260" y="480" as="sourcePoint" />
            <mxPoint x="700" y="480" as="targetPoint" />
          </mxGeometry>
        </mxCell>
        <mxCell id="SLiJRkCuJoeJIqZVfS3b-38" value="" style="endArrow=none;html=1;rounded=0;entryX=0.5;entryY=0;entryDx=0;entryDy=0;exitX=0.5;exitY=1;exitDx=0;exitDy=0;startFill=0;" edge="1" parent="1" source="SLiJRkCuJoeJIqZVfS3b-18" target="SLiJRkCuJoeJIqZVfS3b-32">
          <mxGeometry width="50" height="50" relative="1" as="geometry">
            <mxPoint x="270" y="490" as="sourcePoint" />
            <mxPoint x="470" y="650" as="targetPoint" />
          </mxGeometry>
        </mxCell>
        <mxCell id="SLiJRkCuJoeJIqZVfS3b-39" value="" style="endArrow=none;html=1;rounded=0;entryX=0.5;entryY=0;entryDx=0;entryDy=0;exitX=0.5;exitY=1;exitDx=0;exitDy=0;startFill=0;" edge="1" parent="1" source="SLiJRkCuJoeJIqZVfS3b-19" target="SLiJRkCuJoeJIqZVfS3b-33">
          <mxGeometry width="50" height="50" relative="1" as="geometry">
            <mxPoint x="280" y="500" as="sourcePoint" />
            <mxPoint x="480" y="660" as="targetPoint" />
          </mxGeometry>
        </mxCell>
        <mxCell id="SLiJRkCuJoeJIqZVfS3b-40" value="" style="endArrow=none;html=1;rounded=0;entryX=0.5;entryY=0;entryDx=0;entryDy=0;exitX=0.5;exitY=1;exitDx=0;exitDy=0;startFill=0;" edge="1" parent="1" source="SLiJRkCuJoeJIqZVfS3b-17" target="SLiJRkCuJoeJIqZVfS3b-31">
          <mxGeometry width="50" height="50" relative="1" as="geometry">
            <mxPoint x="290" y="510" as="sourcePoint" />
            <mxPoint x="490" y="670" as="targetPoint" />
          </mxGeometry>
        </mxCell>
      </root>
    </mxGraphModel>
  </diagram>
</mxfile>
